<mxfile host="Electron" modified="2024-05-07T07:59:08.081Z" agent="Mozilla/5.0 (X11; Linux x86_64) AppleWebKit/537.36 (KHTML, like Gecko) draw.io/21.6.5 Chrome/114.0.5735.243 Electron/25.3.1 Safari/537.36" etag="sNDEdP0Eo0Cm1LEL6cND" version="21.6.5" type="device">
  <diagram name="第 1 页" id="MWc46mpDBLFMnkCVnUhl">
    <mxGraphModel dx="1941" dy="879" grid="1" gridSize="10" guides="1" tooltips="1" connect="1" arrows="1" fold="1" page="1" pageScale="1" pageWidth="827" pageHeight="1169" math="0" shadow="0">
      <root>
        <mxCell id="0" />
        <mxCell id="1" parent="0" />
        <mxCell id="iAfkGreFBC2KDctG5Brv-6" value="" style="edgeStyle=orthogonalEdgeStyle;rounded=1;orthogonalLoop=1;jettySize=auto;html=1;entryX=0.5;entryY=0;entryDx=0;entryDy=0;fontSize=11;" edge="1" parent="1" source="iAfkGreFBC2KDctG5Brv-1" target="iAfkGreFBC2KDctG5Brv-7">
          <mxGeometry relative="1" as="geometry">
            <mxPoint x="300" y="180" as="targetPoint" />
          </mxGeometry>
        </mxCell>
        <mxCell id="iAfkGreFBC2KDctG5Brv-9" value="acquire()" style="edgeLabel;html=1;align=center;verticalAlign=middle;resizable=0;points=[];fontSize=11;" vertex="1" connectable="0" parent="iAfkGreFBC2KDctG5Brv-6">
          <mxGeometry x="-0.8" y="1" relative="1" as="geometry">
            <mxPoint x="-1" y="8" as="offset" />
          </mxGeometry>
        </mxCell>
        <mxCell id="iAfkGreFBC2KDctG5Brv-1" value="线程1" style="rounded=1;whiteSpace=wrap;html=1;fontSize=11;" vertex="1" parent="1">
          <mxGeometry x="120" y="80" width="120" height="60" as="geometry" />
        </mxCell>
        <mxCell id="iAfkGreFBC2KDctG5Brv-2" value="&lt;p style=&quot;margin: 4px 0px 0px; text-align: center; font-size: 11px;&quot;&gt;&lt;b style=&quot;font-size: 11px;&quot;&gt;AsyncSemaphore&lt;/b&gt;&lt;/p&gt;&lt;hr style=&quot;font-size: 11px;&quot;&gt;&lt;p style=&quot;margin: 0px 0px 0px 4px; font-size: 11px;&quot;&gt;&lt;font color=&quot;#007fff&quot; style=&quot;font-size: 11px;&quot;&gt;AsyncSemaphore 是&lt;b&gt;异步非阻塞的信号量&lt;/b&gt;实现。&lt;/font&gt;&lt;/p&gt;&lt;p style=&quot;margin: 0px 0px 0px 4px; font-size: 11px;&quot;&gt;&lt;font color=&quot;#007fff&quot; style=&quot;font-size: 11px;&quot;&gt;&lt;br&gt;&lt;/font&gt;&lt;/p&gt;&lt;p style=&quot;margin: 0px 0px 0px 4px; font-size: 11px;&quot;&gt;&lt;font color=&quot;#007fff&quot; style=&quot;font-size: 11px;&quot;&gt;//可用信号量令牌个数&lt;/font&gt;&lt;/p&gt;&lt;p style=&quot;margin: 0px 0px 0px 4px; font-size: 11px;&quot;&gt;private final AtomicInteger &lt;b style=&quot;font-size: 11px;&quot;&gt;counter&lt;/b&gt;;&lt;/p&gt;&lt;p style=&quot;margin: 0px 0px 0px 4px; font-size: 11px;&quot;&gt;&lt;font color=&quot;#007fff&quot; style=&quot;font-size: 11px;&quot;&gt;//任务的CompletableFuture排队，先进先出, &lt;br&gt;//CompletableFuture 是执行业务逻辑的引子，CompletableFuture#complete() 后才会真正执行通过 thenAccept() 等方法注册的业务逻辑&lt;/font&gt;&lt;/p&gt;&lt;p style=&quot;margin: 0px 0px 0px 4px; font-size: 11px;&quot;&gt;private final Queue&amp;lt;CompletableFuture&amp;lt;Void&amp;gt;&amp;gt; &lt;b style=&quot;font-size: 11px;&quot;&gt;listeners&lt;/b&gt; = new &lt;span style=&quot;font-size: 11px;&quot;&gt;&lt;span style=&quot;font-size: 11px;&quot;&gt;&amp;nbsp;&amp;nbsp;&amp;nbsp;&amp;nbsp;&lt;/span&gt;&lt;/span&gt;ConcurrentLinkedQueue&amp;lt;&amp;gt;();&lt;/p&gt;&lt;hr style=&quot;font-size: 11px;&quot;&gt;&lt;p style=&quot;margin: 0px 0px 0px 4px; font-size: 11px;&quot;&gt;public AsyncSemaphore(int permits);&lt;/p&gt;&lt;p style=&quot;margin: 0px 0px 0px 4px; font-size: 11px;&quot;&gt;&lt;font color=&quot;#007fff&quot;&gt;//尝试获取信号量，不管有没有获取到，都会返回 CompletableFuture&lt;/font&gt;&lt;/p&gt;&lt;p style=&quot;margin: 0px 0px 0px 4px; font-size: 11px;&quot;&gt;&lt;font color=&quot;#007fff&quot;&gt;//只不过获取到信号量，会返回完成的 CompletableFuture（即result有值，空值NIL也是有值）;&amp;nbsp;&lt;/font&gt;&lt;/p&gt;&lt;p style=&quot;margin: 0px 0px 0px 4px; font-size: 11px;&quot;&gt;&lt;font color=&quot;#007fff&quot;&gt;//未获取到信号量，会返回未完成的 CompletableFuture（即result无值，null）&lt;/font&gt;&lt;/p&gt;&lt;p style=&quot;margin: 0px 0px 0px 4px; font-size: 11px;&quot;&gt;public CompletableFuture&amp;lt;Void&amp;gt; acquire();&lt;br style=&quot;font-size: 11px;&quot;&gt;&lt;/p&gt;&lt;p style=&quot;margin: 0px 0px 0px 4px;&quot;&gt;&lt;font color=&quot;#007fff&quot;&gt;//释放信号量，并再执行一次 tryRun() 推动队列中等待的CompletableFuture执行&lt;/font&gt;&lt;/p&gt;&lt;p style=&quot;margin: 0px 0px 0px 4px; font-size: 11px;&quot;&gt;public void release();&lt;br style=&quot;font-size: 11px;&quot;&gt;&lt;/p&gt;&lt;p style=&quot;margin: 0px 0px 0px 4px; font-size: 11px;&quot;&gt;&lt;br style=&quot;font-size: 11px;&quot;&gt;&lt;/p&gt;" style="verticalAlign=top;align=left;overflow=fill;fontSize=11;fontFamily=Helvetica;html=1;whiteSpace=wrap;" vertex="1" parent="1">
          <mxGeometry x="-440" y="80" width="400" height="280" as="geometry" />
        </mxCell>
        <mxCell id="iAfkGreFBC2KDctG5Brv-3" value="&lt;font style=&quot;font-size: 16px;&quot;&gt;Redisson AysncSemaphore 实现原理&lt;br&gt;&lt;/font&gt;以 permits = 1 为例" style="text;html=1;strokeColor=none;fillColor=none;align=left;verticalAlign=top;whiteSpace=wrap;rounded=0;" vertex="1" parent="1">
          <mxGeometry x="40" y="20" width="400" height="50" as="geometry" />
        </mxCell>
        <mxCell id="iAfkGreFBC2KDctG5Brv-8" style="edgeStyle=orthogonalEdgeStyle;rounded=1;orthogonalLoop=1;jettySize=auto;html=1;exitX=0.5;exitY=1;exitDx=0;exitDy=0;entryX=0.5;entryY=0;entryDx=0;entryDy=0;fontSize=11;" edge="1" parent="1" source="iAfkGreFBC2KDctG5Brv-4" target="iAfkGreFBC2KDctG5Brv-7">
          <mxGeometry relative="1" as="geometry" />
        </mxCell>
        <mxCell id="iAfkGreFBC2KDctG5Brv-10" value="acquire()" style="edgeLabel;html=1;align=center;verticalAlign=middle;resizable=0;points=[];fontSize=11;" vertex="1" connectable="0" parent="iAfkGreFBC2KDctG5Brv-8">
          <mxGeometry x="-0.7455" y="-3" relative="1" as="geometry">
            <mxPoint as="offset" />
          </mxGeometry>
        </mxCell>
        <mxCell id="iAfkGreFBC2KDctG5Brv-4" value="线程2" style="rounded=1;whiteSpace=wrap;html=1;fontSize=11;" vertex="1" parent="1">
          <mxGeometry x="360" y="80" width="120" height="60" as="geometry" />
        </mxCell>
        <mxCell id="iAfkGreFBC2KDctG5Brv-12" value="" style="edgeStyle=orthogonalEdgeStyle;rounded=1;orthogonalLoop=1;jettySize=auto;html=1;fontSize=11;" edge="1" parent="1" source="iAfkGreFBC2KDctG5Brv-7" target="iAfkGreFBC2KDctG5Brv-11">
          <mxGeometry relative="1" as="geometry" />
        </mxCell>
        <mxCell id="iAfkGreFBC2KDctG5Brv-13" value="Y&lt;br style=&quot;font-size: 11px;&quot;&gt;获取信号量成功" style="edgeLabel;html=1;align=center;verticalAlign=middle;resizable=0;points=[];fontSize=11;" vertex="1" connectable="0" parent="iAfkGreFBC2KDctG5Brv-12">
          <mxGeometry x="-0.3444" y="-3" relative="1" as="geometry">
            <mxPoint x="-31" y="3" as="offset" />
          </mxGeometry>
        </mxCell>
        <mxCell id="iAfkGreFBC2KDctG5Brv-15" style="edgeStyle=orthogonalEdgeStyle;rounded=1;orthogonalLoop=1;jettySize=auto;html=1;exitX=0.5;exitY=1;exitDx=0;exitDy=0;fontSize=11;" edge="1" parent="1" source="iAfkGreFBC2KDctG5Brv-7" target="iAfkGreFBC2KDctG5Brv-14">
          <mxGeometry relative="1" as="geometry" />
        </mxCell>
        <mxCell id="iAfkGreFBC2KDctG5Brv-16" value="N&lt;br style=&quot;font-size: 11px;&quot;&gt;获取信号量失败" style="edgeLabel;html=1;align=center;verticalAlign=middle;resizable=0;points=[];fontSize=11;" vertex="1" connectable="0" parent="iAfkGreFBC2KDctG5Brv-15">
          <mxGeometry x="-0.0556" y="-1" relative="1" as="geometry">
            <mxPoint x="5" as="offset" />
          </mxGeometry>
        </mxCell>
        <mxCell id="iAfkGreFBC2KDctG5Brv-7" value="counter.decrementAndGet() &amp;gt;= 0" style="rhombus;whiteSpace=wrap;html=1;rounded=1;fontSize=11;" vertex="1" parent="1">
          <mxGeometry x="200" y="200" width="200" height="60" as="geometry" />
        </mxCell>
        <mxCell id="iAfkGreFBC2KDctG5Brv-18" value="" style="edgeStyle=orthogonalEdgeStyle;rounded=1;orthogonalLoop=1;jettySize=auto;html=1;fontSize=11;" edge="1" parent="1" source="iAfkGreFBC2KDctG5Brv-11" target="iAfkGreFBC2KDctG5Brv-17">
          <mxGeometry relative="1" as="geometry" />
        </mxCell>
        <mxCell id="iAfkGreFBC2KDctG5Brv-11" value="future.complete(null)" style="whiteSpace=wrap;html=1;rounded=1;fontSize=11;" vertex="1" parent="1">
          <mxGeometry x="80" y="320" width="200" height="60" as="geometry" />
        </mxCell>
        <mxCell id="iAfkGreFBC2KDctG5Brv-14" value="counter.incrementAndGet()&lt;br style=&quot;font-size: 11px;&quot;&gt;&lt;font color=&quot;#007fff&quot; style=&quot;font-size: 11px;&quot;&gt;获取信号量无效，将counter加回去&lt;br style=&quot;font-size: 11px;&quot;&gt;等待后面 tryRun() 重试&lt;br style=&quot;font-size: 11px;&quot;&gt;&lt;/font&gt;" style="whiteSpace=wrap;html=1;rounded=1;fontSize=11;" vertex="1" parent="1">
          <mxGeometry x="320" y="320" width="200" height="60" as="geometry" />
        </mxCell>
        <mxCell id="iAfkGreFBC2KDctG5Brv-20" value="" style="edgeStyle=orthogonalEdgeStyle;rounded=1;orthogonalLoop=1;jettySize=auto;html=1;fontSize=11;" edge="1" parent="1" source="iAfkGreFBC2KDctG5Brv-17" target="iAfkGreFBC2KDctG5Brv-19">
          <mxGeometry relative="1" as="geometry" />
        </mxCell>
        <mxCell id="iAfkGreFBC2KDctG5Brv-17" value="回调 thenAccept() 等方法提交的任务" style="whiteSpace=wrap;html=1;rounded=1;fontSize=11;" vertex="1" parent="1">
          <mxGeometry x="80" y="400" width="200" height="60" as="geometry" />
        </mxCell>
        <mxCell id="iAfkGreFBC2KDctG5Brv-21" style="edgeStyle=orthogonalEdgeStyle;rounded=1;orthogonalLoop=1;jettySize=auto;html=1;exitX=0;exitY=0.5;exitDx=0;exitDy=0;entryX=0;entryY=0.5;entryDx=0;entryDy=0;fontSize=11;" edge="1" parent="1" source="iAfkGreFBC2KDctG5Brv-19" target="iAfkGreFBC2KDctG5Brv-7">
          <mxGeometry relative="1" as="geometry" />
        </mxCell>
        <mxCell id="iAfkGreFBC2KDctG5Brv-23" value="&amp;nbsp;tryRun()&amp;nbsp;" style="edgeLabel;html=1;align=center;verticalAlign=middle;resizable=0;points=[];fontSize=11;" vertex="1" connectable="0" parent="iAfkGreFBC2KDctG5Brv-21">
          <mxGeometry x="0.8091" y="-2" relative="1" as="geometry">
            <mxPoint y="-2" as="offset" />
          </mxGeometry>
        </mxCell>
        <mxCell id="iAfkGreFBC2KDctG5Brv-19" value="任务完成后执行&amp;nbsp;release():&amp;nbsp;&lt;br style=&quot;font-size: 11px;&quot;&gt;counter.incrementAndGet();&lt;br style=&quot;font-size: 11px;&quot;&gt;&lt;b style=&quot;font-size: 11px;&quot;&gt;tryRun&lt;/b&gt;();" style="whiteSpace=wrap;html=1;rounded=1;fontSize=11;" vertex="1" parent="1">
          <mxGeometry x="80" y="480" width="200" height="60" as="geometry" />
        </mxCell>
      </root>
    </mxGraphModel>
  </diagram>
</mxfile>
